# xmcd
# 
# Track frame offsets:
#     150
#     24340
#     46990
#     70375
#     93042
#     109852
#     134502
#     156890
#     175715
#     199625
#     219960
#     243222
#     265175
#     285192
#     307982
# 
# Disc length: 4404
# 
# Revision: 3
# Processed by: cddbd v1.5.2PL0 Copyright (c) Steve Scherf et al.
# Submitted via: BonkEnc v1.0
# 
DISCID=c011320f
DTITLE=Tina - best selection true love
DYEAR=2001
DGENRE=R&B
TTITLE0=There Must Be An Angel
TTITLE1=I'll be there
TTITLE2=Stay for me～忘れてあげない～
TTITLE3=Spend The Time
TTITLE4=L'Adieu
TTITLE5=Magic
TTITLE6=Feeling Out !
TTITLE7=I can't take it
TTITLE8=Spanish Groovin'
TTITLE9=Sunshine Love
TTITLE10=Tears Rain
TTITLE11=迷路
TTITLE12=Sad Song
TTITLE13=Yesterday Once More
TTITLE14=I'll be there ~DJ HASEBE REMIX~
EXTD=
EXTT0=
EXTT1=
EXTT2=
EXTT3=
EXTT4=
EXTT5=
EXTT6=
EXTT7=
EXTT8=
EXTT9=
EXTT10=
EXTT11=
EXTT12=
EXTT13=
EXTT14=
PLAYORDER=
